<svg id="visual" viewBox="0 0 960 300" width="960" height="300" xmlns="http://www.w3.org/2000/svg" xmlns:xlink="http://www.w3.org/1999/xlink" version="1.1"><rect x="0" y="0" width="960" height="300" fill="#202731"></rect><path d="M0 123L22.8 119.8C45.7 116.7 91.3 110.3 137 109C182.7 107.7 228.3 111.3 274 111.7C319.7 112 365.3 109 411.2 103C457 97 503 88 548.8 83.2C594.7 78.3 640.3 77.7 686 83.2C731.7 88.7 777.3 100.3 823 101.3C868.7 102.3 914.3 92.7 937.2 87.8L960 83L960 0L937.2 0C914.3 0 868.7 0 823 0C777.3 0 731.7 0 686 0C640.3 0 594.7 0 548.8 0C503 0 457 0 411.2 0C365.3 0 319.7 0 274 0C228.3 0 182.7 0 137 0C91.3 0 45.7 0 22.8 0L0 0Z" fill="#fa7268"></path><path d="M0 71L22.8 75.7C45.7 80.3 91.3 89.7 137 94.5C182.7 99.3 228.3 99.7 274 99.5C319.7 99.3 365.3 98.7 411.2 95C457 91.3 503 84.7 548.8 82.2C594.7 79.7 640.3 81.3 686 82C731.7 82.7 777.3 82.3 823 82.5C868.7 82.7 914.3 83.3 937.2 83.7L960 84L960 0L937.2 0C914.3 0 868.7 0 823 0C777.3 0 731.7 0 686 0C640.3 0 594.7 0 548.8 0C503 0 457 0 411.2 0C365.3 0 319.7 0 274 0C228.3 0 182.7 0 137 0C91.3 0 45.7 0 22.8 0L0 0Z" fill="#f16367"></path><path d="M0 53L22.8 53C45.7 53 91.3 53 137 56.3C182.7 59.7 228.3 66.3 274 69.3C319.7 72.3 365.3 71.7 411.2 69.3C457 67 503 63 548.8 63.3C594.7 63.7 640.3 68.3 686 67.3C731.7 66.3 777.3 59.7 823 56.7C868.7 53.7 914.3 54.3 937.2 54.7L960 55L960 0L937.2 0C914.3 0 868.7 0 823 0C777.3 0 731.7 0 686 0C640.3 0 594.7 0 548.8 0C503 0 457 0 411.2 0C365.3 0 319.7 0 274 0C228.3 0 182.7 0 137 0C91.3 0 45.7 0 22.8 0L0 0Z" fill="#e85467"></path><path d="M0 62L22.8 59C45.7 56 91.3 50 137 48.7C182.7 47.3 228.3 50.7 274 53.5C319.7 56.3 365.3 58.7 411.2 56.5C457 54.3 503 47.7 548.8 47C594.7 46.3 640.3 51.7 686 55.3C731.7 59 777.3 61 823 60.2C868.7 59.3 914.3 55.7 937.2 53.8L960 52L960 0L937.2 0C914.3 0 868.7 0 823 0C777.3 0 731.7 0 686 0C640.3 0 594.7 0 548.8 0C503 0 457 0 411.2 0C365.3 0 319.7 0 274 0C228.3 0 182.7 0 137 0C91.3 0 45.7 0 22.8 0L0 0Z" fill="#de4467"></path><path d="M0 40L22.8 38.8C45.7 37.7 91.3 35.3 137 34.2C182.7 33 228.3 33 274 33.7C319.7 34.3 365.3 35.7 411.2 34.2C457 32.7 503 28.3 548.8 27.7C594.7 27 640.3 30 686 32.2C731.7 34.3 777.3 35.7 823 34.3C868.7 33 914.3 29 937.2 27L960 25L960 0L937.2 0C914.3 0 868.7 0 823 0C777.3 0 731.7 0 686 0C640.3 0 594.7 0 548.8 0C503 0 457 0 411.2 0C365.3 0 319.7 0 274 0C228.3 0 182.7 0 137 0C91.3 0 45.7 0 22.8 0L0 0Z" fill="#d23467"></path><path d="M0 14L22.8 14.7C45.7 15.3 91.3 16.7 137 16.5C182.7 16.3 228.3 14.7 274 15.2C319.7 15.7 365.3 18.3 411.2 20.5C457 22.7 503 24.3 548.8 25.8C594.7 27.3 640.3 28.7 686 29.5C731.7 30.3 777.3 30.7 823 27.5C868.7 24.3 914.3 17.7 937.2 14.3L960 11L960 0L937.2 0C914.3 0 868.7 0 823 0C777.3 0 731.7 0 686 0C640.3 0 594.7 0 548.8 0C503 0 457 0 411.2 0C365.3 0 319.7 0 274 0C228.3 0 182.7 0 137 0C91.3 0 45.7 0 22.8 0L0 0Z" fill="#c62368"></path></svg>