<svg id="visual" viewBox="0 0 960 300" width="960" height="300" xmlns="http://www.w3.org/2000/svg" xmlns:xlink="http://www.w3.org/1999/xlink" version="1.1"><rect x="0" y="0" width="960" height="300" fill="#202731"></rect><path d="M0 92L22.8 92.7C45.7 93.3 91.3 94.7 137 92.5C182.7 90.3 228.3 84.7 274 85.8C319.7 87 365.3 95 411.2 97.2C457 99.3 503 95.7 548.8 99C594.7 102.3 640.3 112.7 686 116.5C731.7 120.3 777.3 117.7 823 115.5C868.7 113.3 914.3 111.7 937.2 110.8L960 110L960 0L937.2 0C914.3 0 868.7 0 823 0C777.3 0 731.7 0 686 0C640.3 0 594.7 0 548.8 0C503 0 457 0 411.2 0C365.3 0 319.7 0 274 0C228.3 0 182.7 0 137 0C91.3 0 45.7 0 22.8 0L0 0Z" fill="#fa7268"></path><path d="M0 68L22.8 72.8C45.7 77.7 91.3 87.3 137 88.2C182.7 89 228.3 81 274 74.8C319.7 68.7 365.3 64.3 411.2 66.5C457 68.7 503 77.3 548.8 82.2C594.7 87 640.3 88 686 88.3C731.7 88.7 777.3 88.3 823 83.7C868.7 79 914.3 70 937.2 65.5L960 61L960 0L937.2 0C914.3 0 868.7 0 823 0C777.3 0 731.7 0 686 0C640.3 0 594.7 0 548.8 0C503 0 457 0 411.2 0C365.3 0 319.7 0 274 0C228.3 0 182.7 0 137 0C91.3 0 45.7 0 22.8 0L0 0Z" fill="#fc6165"></path><path d="M0 65L22.8 62.3C45.7 59.7 91.3 54.3 137 54.3C182.7 54.3 228.3 59.7 274 58.8C319.7 58 365.3 51 411.2 53C457 55 503 66 548.8 66.2C594.7 66.3 640.3 55.7 686 53.3C731.7 51 777.3 57 823 62.7C868.7 68.3 914.3 73.7 937.2 76.3L960 79L960 0L937.2 0C914.3 0 868.7 0 823 0C777.3 0 731.7 0 686 0C640.3 0 594.7 0 548.8 0C503 0 457 0 411.2 0C365.3 0 319.7 0 274 0C228.3 0 182.7 0 137 0C91.3 0 45.7 0 22.8 0L0 0Z" fill="#fe4e63"></path><path d="M0 42L22.8 41.3C45.7 40.7 91.3 39.3 137 40.8C182.7 42.3 228.3 46.7 274 46.7C319.7 46.7 365.3 42.3 411.2 42.8C457 43.3 503 48.7 548.8 52C594.7 55.3 640.3 56.7 686 52.8C731.7 49 777.3 40 823 35.2C868.7 30.3 914.3 29.7 937.2 29.3L960 29L960 0L937.2 0C914.3 0 868.7 0 823 0C777.3 0 731.7 0 686 0C640.3 0 594.7 0 548.8 0C503 0 457 0 411.2 0C365.3 0 319.7 0 274 0C228.3 0 182.7 0 137 0C91.3 0 45.7 0 22.8 0L0 0Z" fill="#ff3564"></path><path d="M0 18L22.8 20.2C45.7 22.3 91.3 26.7 137 27.8C182.7 29 228.3 27 274 24.5C319.7 22 365.3 19 411.2 17.7C457 16.3 503 16.7 548.8 18.2C594.7 19.7 640.3 22.3 686 22.2C731.7 22 777.3 19 823 18.8C868.7 18.7 914.3 21.3 937.2 22.7L960 24L960 0L937.2 0C914.3 0 868.7 0 823 0C777.3 0 731.7 0 686 0C640.3 0 594.7 0 548.8 0C503 0 457 0 411.2 0C365.3 0 319.7 0 274 0C228.3 0 182.7 0 137 0C91.3 0 45.7 0 22.8 0L0 0Z" fill="#ff0066"></path></svg>